Full Credits to (Pitic):


 ######## ######## ######## ##          ######## ########  ######## ######
 ##       ##       ##       ##          ##       ##     ## ##       ##       
 ##       ##       ##       ##          ##       ##     ## ##       ##       
 ######   ######   ######   ##          ######   ########  ######   ######   
 ##       ##       ##       ##          ##       ##   ##   ##       ##       
 ##       ##       ##       ##          ##       ##    ##  ##       ##       
 ##       ######## ######## ########    ##       ##     ## ######## ######


IMDB LINK:
 
http://www.imdb.com/title/tt1564367/


Genre:Comedy | Romance
 Language:English
 IMDb:http://www.imdb.com/title/tt1564367/
 Source:BluRay.x264-Felony
 Subtitles:Romana

 Format : MPEG-4
 Format profile : Base Media
 Codec ID : isom
 File size : 2.76 GiB
 Duration : 1h 56mn
 Overall bit rate : 3 387 Kbps

 Video
 ID : 1
 Format : AVC
 Format/Info : Advanced Video Codec
 Format profile : High@L4.1
 Format settings, CABAC : Yes
 Format settings, ReFrames : 3 frames
 Codec ID : avc1
 Codec ID/Info : Advanced Video Coding
 Duration : 1h 56mn
 Bit rate mode : Variable
 Bit rate : 3 000 Kbps
 Maximum bit rate : 12.8 Mbps
 Width : 1 280 pixels
 Height : 688 pixels
 Display aspect ratio : 1.860
 Frame rate mode : Constant
 Frame rate : 23.976 fps
 Color space : YUV
 Chroma subsampling : 4:2:0
 Bit depth : 8 bits
 Scan type : Progressive
 Bits/(Pixel*Frame) : 0.142
 Stream size : 2.41 GiB (87%)
 Writing library : x264

 Audio
 ID : 2
 Format : AAC
 Format/Info : Advanced Audio Codec
 Format version : Version 4
 Format profile : LC
 Format settings, SBR : No
 Codec ID : 40
 Duration : 1h 56mn
 Bit rate mode : Variable
 Bit rate : 419 Kbps
 Maximum bit rate : 532 Kbps
 Channel(s) : 6 channels
 Channel positions : Front: L C R, Side: L R, LFE
 Sampling rate : 48.0 KHz
 Stream size : 350 MiB (12%)


 Plot:
 On a weekend trip to Hawaii, a plastic surgeon convinces his loyal assistant
 to pose as his soon-to-be-divorced wife in order to cover up a careless lie
 he told to his much-younger girlfriend.


Greets:

 INK,CRYS,IMAGINE,LKRG,FXG,3Li,FLAWL3SS,TA,iLLUSiON,ViSiON,DTRG SAFCuk009,LU,TheFalcon007,MYSTiC,PrisM,Noir,WBZ,LAP,Rx,Kingdom,SAFCuk009+Fabreezy,HDLiTE,TWiZTED,ExtraTorrentRG.ELEKTRI4KA,MAGNAT,CM8
 And to all the other p2p grps past and present




----------------------------------                           
http://thepiratebay.org/user/hiest
----------------------------------




Screenshots:
 
http://www.pix2links.com/images/32628860877376270483.png
 
http://www.pix2links.com/images/42821020101426201821.png
 
http://www.pix2links.com/images/98737302168366822077.png
 
http://www.pix2links.com/images/63833694185443559946.png
 
http://www.pix2links.com/images/52329536922979286289.png
 
http://www.pix2links.com/images/37421533018634950343.png


Full Credits to (Pitic):


 ######## ######## ######## ##          ######## ########  ######## ######
 ##       ##       ##       ##          ##       ##     ## ##       ##       
 ##       ##       ##       ##          ##       ##     ## ##       ##       
 ######   ######   ######   ##          ######   ########  ######   ######   
 ##       ##       ##       ##          ##       ##   ##   ##       ##       
 ##       ##       ##       ##          ##       ##    ##  ##       ##       
 ##       ######## ######## ########    ##       ##     ## ######## ######